<svg version="1.0" xmlns="http://www.w3.org/2000/svg" width="2186.667" height="832" viewBox="0 0 1640 624"><g fill="#e30b13"><path d="M244.1 80.5c-13 2.9-22 11.7-26.7 26-3.5 10.5-4.5 32.7-2 44.4 4.3 20.4 15 31.5 33.1 34.3 13.8 2.1 27.8-2.2 35.5-10.9 8.6-9.8 12-21.6 12-42.3.1-33.7-12.4-51-37.9-52.5-4.7-.3-10.1.1-14 1zm22 21.2c5.8 6.2 7.4 12.8 7.4 30.3-.1 17.5-1.8 24.8-7.5 31.2-3.4 3.8-4.1 4.2-9.6 4.6-7.7.5-11.8-2-15.6-9.8-6.1-12.1-6.1-38.9-.1-50.9 3.9-7.8 8-10.4 15.7-9.9 5.4.4 6.2.8 9.7 4.5zM905.8 80c-12.1 2.2-21.9 9.3-27.2 19.9-9 17.7-8.1 50.6 1.8 67.6 7.9 13.3 25.5 20.6 42.7 17.7 9.1-1.6 15.3-4.8 21.2-11.1 4.4-4.7 10.7-15.8 10.7-18.8 0-1.3-.6-1.5-10.5-3.3-3.3-.6-6.7-1.3-7.5-1.6-1-.2-2.6 1.7-4.9 6.2-4.4 8.5-8.5 11.4-16.2 11.4-13 0-19.6-10.4-20.6-32.5-1.1-24.7 6.1-38.5 20.2-38.5 7.5 0 12.6 4.3 16.4 13.6l1.2 3.1 9.6-2.3c5.3-1.3 9.8-2.5 10-2.8 1-.9-2-7.8-5.7-13.4-4.2-6.2-9.9-10.9-16.9-13.6-5.1-2-17.7-2.8-24.3-1.6zM313 132.5V184h19v-26.8c0-14.7-.5-31.6-1-37.6-.6-6-.9-11-.8-11.2.2-.1 6.8 16.8 14.8 37.7l14.5 37.9H386V81h-20v26.2c0 14.5.5 31.6 1.1 38.2.5 6.5.8 12 .6 12.2-.2.2-6.9-16.8-14.9-37.8l-14.6-38.3-12.6-.3-12.6-.3v51.6zM412 132.5V184h70v-17h-47V81h-23v51.5zM502 89.5V98h24v69h-24v17h70v-17h-24l.2-34.3.3-34.2 11.8-.3 11.7-.3V81h-70v8.5zM595 132.5V184h19v-26.8c0-14.7-.5-31.6-1-37.6-.6-6-.9-11-.8-11.2.2-.1 6.8 16.8 14.8 37.7l14.5 37.9H668V81h-20v26.2c0 14.5.5 31.6 1.1 38.2.5 6.5.8 12 .6 12.2-.2.2-6.9-16.8-14.9-37.8l-14.6-38.3-12.6-.3-12.6-.3v51.6zM689 132.5V184h77v-17h-55v-27h47v-17h-47V98h52V81h-74v51.5zM972 89.5V98h24v69h-24v17h70v-17h-24l.2-34.3.3-34.2 11.8-.3 11.7-.3V81h-70v8.5zM1065 132.5V184h19v-26.8c0-14.7-.5-31.6-1-37.6-.6-6-.9-11-.8-11.2.2-.1 6.8 16.8 14.8 37.7l14.5 37.9h26.5V81h-20v26.2c0 14.5.5 31.6 1.1 38.2.5 6.5.8 12 .6 12.2-.2.2-6.9-16.8-14.9-37.8l-14.6-38.3-12.6-.3-12.6-.3v51.6zM1159 132.5V184h77v-17h-55v-27h47v-17h-47V98h52V81h-74v51.5zM1250 132.5V184h16.1l-.3-43.4c-.2-23.9-.1-43.3 0-43.1.2.2 1.4 5.2 2.7 11.2 1.4 5.9 4.2 17.3 6.4 25.3 2.1 8 4.4 16.4 5 18.7l1.2 4.3h16.4l5.8-22.3c3.1-12.2 6.4-25.5 7.2-29.6.9-4.1 1.7-7.6 1.8-7.7.1-.1.1 19.3-.1 43.2l-.3 43.4h16.1V81h-24.9l-1.2 4.2c-.6 2.4-3.1 11.6-5.5 20.5s-4.9 19.5-5.6 23.5l-1.2 7.3-1.7-9c-1.4-7.1-8.6-35.2-11.5-44.8-.5-1.5-2-1.7-13.5-1.7H1250v51.5zM1353.4 131.7c-9.1 27.9-16.8 51.1-17.1 51.5-.2.5 4.7.8 10.9.8h11.4l3.4-12.5 3.3-12.5h35.6l1.1 4.2c.7 2.4 2.2 7.9 3.4 12.3l2.3 8 11.2.3c6.1.1 11.1.1 11.1 0 0-.2-7.6-23.3-16.9-51.3l-16.8-51-13.1-.3-13.1-.3-16.7 50.8zm36.8-10.7c2.8 10.2 5.3 19.1 5.5 19.7.4 1-2.5 1.3-12.5 1.3h-13l3.9-13.8c2.2-7.5 4.8-17.3 6-21.7 2.8-11.2 3-11.6 4.1-7.5.5 1.9 3.2 11.8 6 22zM164 296.5V312h1312v-31H164v15.5zM326.3 364.2c-.6.7-3.1 6.8-5.7 13.5l-4.8 12.3-3.6.1c-13.3.5-24.6 1.5-24.8 2.4-.2.5 4.2 4.6 9.7 9 5.5 4.4 10.5 8.5 11 9.1.6.8-.3 5.8-2.6 14.4-2 7.3-3.3 13.6-2.8 14.1.4.4 6-2.6 12.3-6.6 6.3-4.1 11.8-7.5 12.2-7.5.4 0 6 3.4 12.5 7.6 14 8.9 13.8 9 9.4-7.7-1.7-6.3-3.1-12.1-3.1-12.9.1-.8 4.8-5.3 10.6-9.9 5.7-4.6 10.3-8.9 10.1-9.5-.4-1.2-.6-1.3-16.8-2.1l-11.6-.7-4.8-12.6c-5.2-14-5.7-14.9-7.2-13zM449.3 364.2c-.6.7-3.1 6.8-5.7 13.5l-4.8 12.3-3.6.1c-13.3.5-24.6 1.5-24.8 2.4-.2.5 4.2 4.6 9.7 9 5.5 4.4 10.5 8.5 11 9.1.6.8-.3 5.8-2.6 14.4-2 7.3-3.3 13.6-2.8 14.1.4.4 6-2.6 12.3-6.6 6.3-4.1 11.8-7.5 12.2-7.5.4 0 6 3.4 12.5 7.6 14 8.9 13.8 9 9.4-7.7-1.7-6.3-3.1-12.1-3.1-12.9.1-.8 4.8-5.3 10.6-9.9 5.7-4.6 10.3-8.9 10.1-9.5-.4-1.2-.6-1.3-16.8-2.1l-11.6-.7-4.8-12.6c-5.2-14-5.7-14.9-7.2-13zM572.3 364.2c-.6.7-3.1 6.8-5.7 13.5l-4.8 12.3-3.6.1c-13.3.5-24.6 1.5-24.8 2.4-.2.5 4.2 4.6 9.7 9 5.5 4.4 10.5 8.5 11 9.1.6.8-.3 5.8-2.6 14.4-2 7.3-3.3 13.6-2.8 14.1.4.4 6-2.6 12.3-6.6 6.3-4.1 11.8-7.5 12.2-7.5.4 0 6 3.4 12.5 7.6 14 8.9 13.8 9 9.4-7.7-1.7-6.3-3.1-12.1-3.1-12.9.1-.8 4.8-5.3 10.6-9.9 5.7-4.6 10.3-8.9 10.1-9.5-.4-1.2-.6-1.3-16.8-2.1l-11.6-.7-4.8-12.6c-5.2-14-5.7-14.9-7.2-13zM1064.3 364.2c-.6.7-3.1 6.8-5.7 13.5l-4.8 12.3-3.6.1c-13.3.5-24.6 1.5-24.8 2.4-.2.5 4.2 4.6 9.7 9 5.5 4.4 10.5 8.5 11 9.1.6.8-.3 5.8-2.6 14.4-2 7.3-3.3 13.6-2.8 14.1.4.4 6-2.6 12.3-6.6 6.3-4.1 11.8-7.5 12.2-7.5.4 0 6 3.4 12.5 7.6 14 8.9 13.8 9 9.4-7.7-1.7-6.3-3.1-12.1-3.1-12.9.1-.8 4.8-5.3 10.6-9.9 5.7-4.6 10.3-8.9 10.1-9.5-.4-1.2-.6-1.3-16.8-2.1l-11.6-.7-4.8-12.6c-5.2-14-5.7-14.9-7.2-13zM1187.3 364.2c-.6.7-3.1 6.8-5.7 13.5l-4.8 12.3-3.6.1c-13.3.5-24.6 1.5-24.8 2.4-.2.5 4.2 4.6 9.7 9 5.5 4.4 10.5 8.5 11 9.1.6.8-.3 5.8-2.6 14.4-2 7.3-3.3 13.6-2.8 14.1.4.4 6-2.6 12.3-6.6 6.3-4.1 11.8-7.5 12.2-7.5.4 0 6 3.4 12.5 7.6 14 8.9 13.8 9 9.4-7.7-1.7-6.3-3.1-12.1-3.1-12.9.1-.8 4.8-5.3 10.6-9.9 5.7-4.6 10.3-8.9 10.1-9.5-.4-1.2-.6-1.3-16.8-2.1l-11.6-.7-4.8-12.6c-5.2-14-5.7-14.9-7.2-13zM1310.3 364.2c-.6.7-3.1 6.8-5.7 13.5l-4.8 12.3-3.6.1c-13.3.5-24.6 1.5-24.8 2.4-.2.5 4.2 4.6 9.7 9 5.5 4.4 10.5 8.5 11 9.1.6.8-.3 5.8-2.6 14.4-2 7.3-3.3 13.6-2.8 14.1.4.4 6-2.6 12.3-6.6 6.3-4.1 11.8-7.5 12.2-7.5.4 0 6 3.4 12.5 7.6 14 8.9 13.8 9 9.4-7.7-1.7-6.3-3.1-12.1-3.1-12.9.1-.8 4.8-5.3 10.6-9.9 5.7-4.6 10.3-8.9 10.1-9.5-.4-1.2-.6-1.3-16.8-2.1l-11.6-.7-4.8-12.6c-5.2-14-5.7-14.9-7.2-13zM834.7 400c-1.8 1.4-2.7 3.2-2.9 5.8l-.3 3.7-56.8.5-56.9.5-2.4 2.8c-2.1 2.5-2.4 3.7-2.4 11.7v9l-6 3c-9.5 4.8-10 6.2-10 26.3 0 20.2.3 21.1 9.5 26.2l6.5 3.7v35.2c0 30.9.2 35.4 1.6 37.5 3.4 4.8 6 5.1 39.9 5.1H786v3.5c0 2.2.8 4.3 2 5.5 1.9 1.9 3.3 2 32 2s30.1-.1 32-2c1.2-1.2 2-3.3 2-5.4v-3.4l13.8-.4c20.7-.5 20.5-.2 21.2-26.7l.5-19.3 14 11.7c16.8 14 20.3 15.9 29.2 15.3 10.7-.7 9.8 4.8 9.8-61.4v-57.6l-2.4-1.9c-1.8-1.5-3.9-1.9-9.5-1.9-8.6 0-9 .2-27 15-7.4 6-13.7 11-14 11-.3 0-.6-8.8-.8-19.5l-.3-19.5-2.8-2.7c-2.7-2.7-3-2.8-17-3.3l-14.2-.5-.3-3.7c-.5-5.4-3.9-7.8-11.2-7.8-4.2 0-6.4.5-8.3 2zm12.3 7.5c0 2.2-.4 2.5-4 2.5s-4-.3-4-2.5c0-2.3.4-2.5 4-2.5s4 .2 4 2.5zm34 11.4c.6 1.3 1 25.4 1 71.1 0 45.7-.4 69.8-1 71.1-1 1.9-3 1.9-80.4 1.9-71.5 0-79.4-.2-80-1.6-.3-.9-.6-17.5-.6-36.9 0-28.1-.3-35.6-1.3-36.7-.8-.7-4.2-2.6-7.6-4.2-3.9-1.9-6.3-3.7-6.7-5-.2-1.2-.3-8.9-.2-17.1l.3-15 6.1-3c9.6-4.7 9.4-4.5 9.4-14.9 0-5.8.4-9.6 1.2-10.4.9-.9 20-1.2 80-1.2 76.8 0 78.8 0 79.8 1.9zm54 71.1v54h-4.9c-5.4 0-4.3.7-26.6-17l-14.4-11.5.2-25.4.2-25.4 17.8-14.4c17.5-14.1 17.9-14.3 22.8-14.3h4.9v54zm-88 83c0 2-.7 2-27 2s-27 0-27-2 .7-2 27-2 27 0 27 2z"/><path d="M831.5 449.8C824.6 453 820 460.4 820 468c.1 3.8 3.4 10.3 6.8 13.2 9.5 8 23.9 5.3 29.1-5.4 4.1-8.7 1.5-19.5-5.9-24.4-5.2-3.5-13.1-4.1-18.5-1.6zm15.4 7.7c9 7.6 4 21.5-7.8 21.5-5.3 0-8.4-1.8-10.6-6-4.4-8.5 1.2-18 10.7-18 3.5 0 5.4.6 7.7 2.5zM737.8 464.1c-2.2 1.3-2.3 5.5-.2 6.3 3.1 1.2 40.9.7 42.2-.6 1.8-1.8 1.4-4.6-.7-5.8-2.6-1.3-39-1.3-41.3.1zM791.4 463.8c-1.9 1.3-2.3 4.1-.8 5.7 1.9 1.9 18.3 2.2 20.2.3 1.8-1.8 1.4-4.6-.7-5.8-2.2-1.1-17-1.4-18.7-.2zM733.1 541.4c-.7.9-1.1 3.8-.9 7.3.3 5.7.3 5.8 3.3 5.8s3-.1 3.3-5.8c.3-5.8-.8-8.7-3.3-8.7-.7 0-1.8.6-2.4 1.4zM752.1 541.4c-.7.9-1.1 3.8-.9 7.3.3 5.7.3 5.8 3.3 5.8s3-.1 3.3-5.8c.3-5.8-.8-8.7-3.3-8.7-.7 0-1.8.6-2.4 1.4zM771.8 541.1c-1.3.7-1.8 2.3-1.8 5.9 0 6.4.7 8 3.6 8 3.2 0 4.7-3.3 4.1-8.8-.6-5.5-2.5-7.1-5.9-5.1zM791.1 540.9c-1.8 1.1-2.6 9.3-1.2 12 1.3 2.3 4 2.8 5.9.9.7-.7 1.2-3.6 1.2-6.5 0-4.1-.4-5.4-1.9-6.3-2.3-1.2-2.2-1.2-4-.1zM810.2 540.9c-.9.5-1.2 2.7-1 7.2.3 6.4.3 6.4 3.3 6.4s3-.1 3.3-5.8c.4-7.4-1.7-10.3-5.6-7.8zM829.1 541.4c-.7.9-1.1 3.8-.9 7.3.3 5.7.3 5.8 3.3 5.8s3-.1 3.3-5.8c.3-5.8-.8-8.7-3.3-8.7-.7 0-1.8.6-2.4 1.4zM848.2 541.2c-1.4 1.4-1.6 10.6-.3 12.6.4.8 1.9 1.2 3.2 1 2.2-.3 2.4-.8 2.7-6.7.2-4.5-.1-6.7-1-7.2-1.8-1.2-3.2-1.1-4.6.3zM867.5 541.6c-2.2 2.3-1.7 11.3.8 12.8 3 1.9 5.2-.4 5.5-6.1.3-4.9-1.3-8.3-3.8-8.3-.5 0-1.6.7-2.5 1.6zM921.6 449.2c-1.4.8-1.6 4.8-1.6 40.3 0 21.6.3 40 .6 40.9 1 2.6 5.3 2 6.4-1 1.1-2.7 1.4-74.3.4-78.1-.7-2.4-3.4-3.5-5.8-2.1z"/></g></svg>